<svg xmlns="http://www.w3.org/2000/svg" viewBox="0 0 100 100">
  <!-- Background circle -->
  <rect width="100" height="100" rx="22" fill="#030D1A"/>

  <!-- Tooth shape -->
  <path
    d="M50 14
       C40 14 32 18 28 25
       C24 32 24 40 26 47
       C28 54 30 58 31 64
       C32 70 33 78 36 82
       C37 85 40 86 42 84
       C44 82 45 76 46 70
       C47 64 48 60 50 60
       C52 60 53 64 54 70
       C55 76 56 82 58 84
       C60 86 63 85 64 82
       C67 78 68 70 69 64
       C70 58 72 54 74 47
       C76 40 76 32 72 25
       C68 18 60 14 50 14Z"
    fill="#00BCD4"
  />

  <!-- Tooth highlight -->
  <path
    d="M38 20 C35 24 34 30 35 36"
    stroke="white"
    stroke-width="3"
    stroke-linecap="round"
    fill="none"
    opacity="0.5"
  />
</svg>
